<svg xmlns="http://www.w3.org/2000/svg" version="1.1" xmlns:xlink="http://www.w3.org/1999/xlink" xmlns:svgjs="http://svgjs.dev/svgjs" width="1440" height="560" preserveAspectRatio="none" viewBox="0 0 1440 560"><g mask="url(&quot;#SvgjsMask1019&quot;)" fill="none"><rect width="1440" height="560" x="0" y="0" fill="url(&quot;#SvgjsLinearGradient1020&quot;)"></rect><path d="M620 118L927 425" stroke-width="6" stroke="url(&quot;#SvgjsLinearGradient1021&quot;)" stroke-linecap="round" class="TopLeft"></path><path d="M386 102L602 318" stroke-width="10" stroke="url(&quot;#SvgjsLinearGradient1021&quot;)" stroke-linecap="round" class="TopLeft"></path><path d="M1376 104L1559 287" stroke-width="6" stroke="url(&quot;#SvgjsLinearGradient1022&quot;)" stroke-linecap="round" class="BottomRight"></path><path d="M719 318L895 494" stroke-width="10" stroke="url(&quot;#SvgjsLinearGradient1021&quot;)" stroke-linecap="round" class="TopLeft"></path><path d="M405 148L253 -4" stroke-width="6" stroke="url(&quot;#SvgjsLinearGradient1021&quot;)" stroke-linecap="round" class="TopLeft"></path><path d="M645 455L956 766" stroke-width="8" stroke="url(&quot;#SvgjsLinearGradient1022&quot;)" stroke-linecap="round" class="BottomRight"></path><path d="M666 215L418 -33" stroke-width="6" stroke="url(&quot;#SvgjsLinearGradient1021&quot;)" stroke-linecap="round" class="TopLeft"></path><path d="M548 344L371 167" stroke-width="8" stroke="url(&quot;#SvgjsLinearGradient1022&quot;)" stroke-linecap="round" class="BottomRight"></path><path d="M823 63L1137 377" stroke-width="6" stroke="url(&quot;#SvgjsLinearGradient1021&quot;)" stroke-linecap="round" class="TopLeft"></path><path d="M897 226L588 -83" stroke-width="6" stroke="url(&quot;#SvgjsLinearGradient1022&quot;)" stroke-linecap="round" class="BottomRight"></path><path d="M1004 257L1172 425" stroke-width="10" stroke="url(&quot;#SvgjsLinearGradient1022&quot;)" stroke-linecap="round" class="BottomRight"></path><path d="M1254 559L899 204" stroke-width="10" stroke="url(&quot;#SvgjsLinearGradient1021&quot;)" stroke-linecap="round" class="TopLeft"></path><path d="M1079 425L822 168" stroke-width="6" stroke="url(&quot;#SvgjsLinearGradient1021&quot;)" stroke-linecap="round" class="TopLeft"></path><path d="M477 359L782 664" stroke-width="10" stroke="url(&quot;#SvgjsLinearGradient1022&quot;)" stroke-linecap="round" class="BottomRight"></path><path d="M1253 32L1416 195" stroke-width="6" stroke="url(&quot;#SvgjsLinearGradient1021&quot;)" stroke-linecap="round" class="TopLeft"></path><path d="M359 107L618 366" stroke-width="6" stroke="url(&quot;#SvgjsLinearGradient1022&quot;)" stroke-linecap="round" class="BottomRight"></path><path d="M648 90L1044 486" stroke-width="10" stroke="url(&quot;#SvgjsLinearGradient1021&quot;)" stroke-linecap="round" class="TopLeft"></path><path d="M1403 521L1169 287" stroke-width="10" stroke="url(&quot;#SvgjsLinearGradient1022&quot;)" stroke-linecap="round" class="BottomRight"></path><path d="M348 268L131 51" stroke-width="8" stroke="url(&quot;#SvgjsLinearGradient1022&quot;)" stroke-linecap="round" class="BottomRight"></path><path d="M1252 430L1503 681" stroke-width="8" stroke="url(&quot;#SvgjsLinearGradient1021&quot;)" stroke-linecap="round" class="TopLeft"></path><path d="M1278 93L990 -195" stroke-width="8" stroke="url(&quot;#SvgjsLinearGradient1022&quot;)" stroke-linecap="round" class="BottomRight"></path><path d="M856 79L543 -234" stroke-width="10" stroke="url(&quot;#SvgjsLinearGradient1021&quot;)" stroke-linecap="round" class="TopLeft"></path><path d="M1266 414L1434 582" stroke-width="8" stroke="url(&quot;#SvgjsLinearGradient1022&quot;)" stroke-linecap="round" class="BottomRight"></path><path d="M501 356L347 202" stroke-width="10" stroke="url(&quot;#SvgjsLinearGradient1021&quot;)" stroke-linecap="round" class="TopLeft"></path><path d="M68 361L276 569" stroke-width="10" stroke="url(&quot;#SvgjsLinearGradient1021&quot;)" stroke-linecap="round" class="TopLeft"></path><path d="M779 383L541 145" stroke-width="10" stroke="url(&quot;#SvgjsLinearGradient1021&quot;)" stroke-linecap="round" class="TopLeft"></path><path d="M802 136L557 -109" stroke-width="8" stroke="url(&quot;#SvgjsLinearGradient1022&quot;)" stroke-linecap="round" class="BottomRight"></path><path d="M858 470L1277 889" stroke-width="8" stroke="url(&quot;#SvgjsLinearGradient1021&quot;)" stroke-linecap="round" class="TopLeft"></path><path d="M555 541L795 781" stroke-width="8" stroke="url(&quot;#SvgjsLinearGradient1022&quot;)" stroke-linecap="round" class="BottomRight"></path><path d="M1116 247L930 61" stroke-width="10" stroke="url(&quot;#SvgjsLinearGradient1021&quot;)" stroke-linecap="round" class="TopLeft"></path><path d="M1001 414L1280 693" stroke-width="8" stroke="url(&quot;#SvgjsLinearGradient1022&quot;)" stroke-linecap="round" class="BottomRight"></path><path d="M952 379L551 -22" stroke-width="6" stroke="url(&quot;#SvgjsLinearGradient1021&quot;)" stroke-linecap="round" class="TopLeft"></path><path d="M1018 523L680 185" stroke-width="8" stroke="url(&quot;#SvgjsLinearGradient1022&quot;)" stroke-linecap="round" class="BottomRight"></path><path d="M747 213L890 356" stroke-width="8" stroke="url(&quot;#SvgjsLinearGradient1022&quot;)" stroke-linecap="round" class="BottomRight"></path><path d="M514 78L868 432" stroke-width="10" stroke="url(&quot;#SvgjsLinearGradient1021&quot;)" stroke-linecap="round" class="TopLeft"></path><path d="M1127 320L1334 527" stroke-width="8" stroke="url(&quot;#SvgjsLinearGradient1021&quot;)" stroke-linecap="round" class="TopLeft"></path><path d="M744 86L370 -288" stroke-width="6" stroke="url(&quot;#SvgjsLinearGradient1021&quot;)" stroke-linecap="round" class="TopLeft"></path><path d="M1037 334L821 118" stroke-width="10" stroke="url(&quot;#SvgjsLinearGradient1022&quot;)" stroke-linecap="round" class="BottomRight"></path><path d="M700 173L549 22" stroke-width="10" stroke="url(&quot;#SvgjsLinearGradient1022&quot;)" stroke-linecap="round" class="BottomRight"></path></g><defs><mask id="SvgjsMask1019"><rect width="1440" height="560" fill="#ffffff"></rect></mask><linearGradient x1="15.28%" y1="-39.29%" x2="84.72%" y2="139.29%" gradientUnits="userSpaceOnUse" id="SvgjsLinearGradient1020"><stop stop-color="#0e2a47" offset="0"></stop><stop stop-color="#00459e" offset="1"></stop></linearGradient><linearGradient x1="100%" y1="100%" x2="0%" y2="0%" id="SvgjsLinearGradient1021"><stop stop-color="rgba(12, 95, 185, 0)" offset="0"></stop><stop stop-color="rgba(12, 95, 185, 1)" offset="1"></stop></linearGradient><linearGradient x1="0%" y1="0%" x2="100%" y2="100%" id="SvgjsLinearGradient1022"><stop stop-color="rgba(12, 95, 185, 0)" offset="0"></stop><stop stop-color="rgba(12, 95, 185, 1)" offset="1"></stop></linearGradient></defs></svg>